<!DOCTYPE svg PUBLIC "-//W3C//DTD SVG 1.1//EN" "http://www.w3.org/Graphics/SVG/1.1/DTD/svg11.dtd">
<!-- Uploaded to: SVG Repo, www.svgrepo.com, Transformed by: SVG Repo Mixer Tools -->
<svg fill="#000000" width="244px" height="244px" viewBox="0 0 24.00 24.00" id="chat-3" data-name="Flat Color" xmlns="http://www.w3.org/2000/svg" class="icon flat-color" transform="matrix(-1, 0, 0, -1, 0, 0)rotate(180)">
<g id="SVGRepo_bgCarrier" stroke-width="0"/>
<g id="SVGRepo_tracerCarrier" stroke-linecap="round" stroke-linejoin="round"/>
<g id="SVGRepo_iconCarrier">
<path id="primary" d="M4,3H16a2,2,0,0,1,2,2V15a2,2,0,0,1-2,2H14v2a1,1,0,0,1-.51.87A1,1,0,0,1,13,20a1,1,0,0,1-.51-.14L7.72,17H4a2,2,0,0,1-2-2V5A2,2,0,0,1,4,3Z" style="fill: #000000;"/>
<path id="secondary" d="M16,20a1,1,0,0,1,1-1h3V8a1,1,0,0,1,2,0V19a2,2,0,0,1-2,2H17A1,1,0,0,1,16,20ZM11,10a1.5,1.5,0,1,0,1.5-1.5A1.5,1.5,0,0,0,11,10ZM6,10A1.5,1.5,0,1,0,7.5,8.5,1.5,1.5,0,0,0,6,10Z" style="fill: #2ca9bc;"/>
</g>
</svg>